ffmpeg version 2.8.11-0ubuntu0.16.04.1 Copyright (c) 2000-2017 the FFmpeg developers
  built with gcc 5.4.0 (Ubuntu 5.4.0-6ubuntu1~16.04.4) 20160609
  configuration: --prefix=/usr --extra-version=0ubuntu0.16.04.1 --build-suffix=-ffmpeg --toolchain=hardened --libdir=/usr/lib/x86_64-linux-gnu --incdir=/usr/include/x86_64-linux-gnu --cc=cc --cxx=g++ --enable-gpl --enable-shared --disable-stripping --disable-decoder=libopenjpeg --disable-decoder=libschroedinger --enable-avresample --enable-avisynth --enable-gnutls --enable-ladspa --enable-libass --enable-libbluray --enable-libbs2b --enable-libcaca --enable-libcdio --enable-libflite --enable-libfontconfig --enable-libfreetype --enable-libfribidi --enable-libgme --enable-libgsm --enable-libmodplug --enable-libmp3lame --enable-libopenjpeg --enable-libopus --enable-libpulse --enable-librtmp --enable-libschroedinger --enable-libshine --enable-libsnappy --enable-libsoxr --enable-libspeex --enable-libssh --enable-libtheora --enable-libtwolame --enable-libvorbis --enable-libvpx --enable-libwavpack --enable-libwebp --enable-libx265 --enable-libxvid --enable-libzvbi --enable-openal --enable-opengl --enable-x11grab --enable-libdc1394 --enable-libiec61883 --enable-libzmq --enable-frei0r --enable-libx264 --enable-libopencv
  libavutil      54. 31.100 / 54. 31.100
  libavcodec     56. 60.100 / 56. 60.100
  libavformat    56. 40.101 / 56. 40.101
  libavdevice    56.  4.100 / 56.  4.100
  libavfilter     5. 40.101 /  5. 40.101
  libavresample   2.  1.  0 /  2.  1.  0
  libswscale      3.  1.101 /  3.  1.101
  libswresample   1.  2.101 /  1.  2.101
  libpostproc    53.  3.100 / 53.  3.100
[mp3 @ 0x103e8c0] Unknown attached picture mimetype: ('image/png', None), skipping.
[mp3 @ 0x103e8c0] Skipping 0 bytes of junk at 17522.
Input #0, mp3, from 'jan-kochanowski-treny-tren-vi.mp3':
  Metadata:
    title           : Jan Kochanowski, "Treny", Tren VI
    artist          : Jakub Wieczorek
    album           : Wolne Lektury
    encoder         : Lavf53.21.0
    genre           : Speech
    originator_reference: 7Z9IAaW0r8oaaaGk
    date            : 2008-10-31
    performer       : Gosia Kozera
    album_artist    : Fundacja Nowoczesna Polska
    time_reference  : 193590379
    copyright       : 2008 Fundacja Nowoczesna Polska. Licensed to the public under http://creativecommons.org/licenses/by-sa/3.0/deed.pl verify at http://wolnelektury.pl/katalog/lektura/treny-tren-vi/
    creation_time   : 0012-08-57
    encoded_by      : Pro Tools
    publisher       : Fundacja Nowoczesna Polska
  Duration: 00:01:53.37, start: 0.000000, bitrate: 65 kb/s
    Stream #0:0: Audio: mp3, 44100 Hz, mono, s16p, 64 kb/s
Output #0, null, to 'pipe:':
  Metadata:
    title           : Jan Kochanowski, "Treny", Tren VI
    artist          : Jakub Wieczorek
    album           : Wolne Lektury
    publisher       : Fundacja Nowoczesna Polska
    genre           : Speech
    originator_reference: 7Z9IAaW0r8oaaaGk
    date            : 2008-10-31
    performer       : Gosia Kozera
    album_artist    : Fundacja Nowoczesna Polska
    time_reference  : 193590379
    copyright       : 2008 Fundacja Nowoczesna Polska. Licensed to the public under http://creativecommons.org/licenses/by-sa/3.0/deed.pl verify at http://wolnelektury.pl/katalog/lektura/treny-tren-vi/
    encoded_by      : Pro Tools
    encoder         : Lavf56.40.101
    Stream #0:0: Audio: pcm_s16le, 44100 Hz, mono, s16, 705 kb/s
    Metadata:
      encoder         : Lavc56.60.100 pcm_s16le
Stream mapping:
  Stream #0:0 -> #0:0 (mp3 (native) -> pcm_s16le (native))
Press [q] to stop, [?] for help
[silencedetect @ 0x1051880] silence_start: -0.00367347
[silencedetect @ 0x1051880] silence_end: 0.574694 | silence_duration: 0.578367
[silencedetect @ 0x1051880] silence_start: 1.56367
[silencedetect @ 0x1051880] silence_end: 2.0898 | silence_duration: 0.526122
[silencedetect @ 0x1051880] silence_start: 2.66082
[silencedetect @ 0x1051880] silence_end: 3.52653 | silence_duration: 0.865714
[silencedetect @ 0x1051880] silence_start: 5.0902
[silencedetect @ 0x1051880] silence_end: 7.86286 | silence_duration: 2.77265
[silencedetect @ 0x1051880] silence_start: 9.74
[silencedetect @ 0x1051880] silence_end: 10.5273 | silence_duration: 0.787347
[silencedetect @ 0x1051880] silence_start: 15.722
[silencedetect @ 0x1051880] silence_end: 16.3527 | silence_duration: 0.630612
[silencedetect @ 0x1051880] silence_start: 19.6143
[silencedetect @ 0x1051880] silence_end: 20.5584 | silence_duration: 0.944082
[silencedetect @ 0x1051880] silence_start: 25.2045
[silencedetect @ 0x1051880] silence_end: 25.8612 | silence_duration: 0.656735
[silencedetect @ 0x1051880] silence_start: 27.7122
[silencedetect @ 0x1051880] silence_end: 28.2384 | silence_duration: 0.526122
[silencedetect @ 0x1051880] silence_start: 33.0412
[silencedetect @ 0x1051880] silence_end: 33.5673 | silence_duration: 0.526122
[silencedetect @ 0x1051880] silence_start: 39.3629
[silencedetect @ 0x1051880] silence_end: 42.449 | silence_duration: 3.08612
[silencedetect @ 0x1051880] silence_start: 44.2478
[silencedetect @ 0x1051880] silence_end: 46.8114 | silence_duration: 2.56367
[silencedetect @ 0x1051880] silence_start: 48.9498
[silencedetect @ 0x1051880] silence_end: 49.5543 | silence_duration: 0.60449
[silencedetect @ 0x1051880] silence_start: 51.562
[silencedetect @ 0x1051880] silence_end: 53.0547 | silence_duration: 1.49265
[silencedetect @ 0x1051880] silence_start: 59.66
[silencedetect @ 0x1051880] silence_end: 61.3355 | silence_duration: 1.67551
[silencedetect @ 0x1051880] silence_start: 61.9849
[silencedetect @ 0x1051880] silence_end: 63.0596 | silence_duration: 1.07469
[silencedetect @ 0x1051880] silence_start: 65.198
[silencedetect @ 0x1051880] silence_end: 65.9069 | silence_duration: 0.70898
[silencedetect @ 0x1051880] silence_start: 68.9073
[silencedetect @ 0x1051880] silence_end: 71.2882 | silence_duration: 2.38082
[silencedetect @ 0x1051880] silence_start: 73.7139
[silencedetect @ 0x1051880] silence_end: 75.3894 | silence_duration: 1.67551
[silencedetect @ 0x1051880] silence_start: 78.442
[silencedetect @ 0x1051880] silence_end: 80.0392 | silence_duration: 1.59714
[silencedetect @ 0x1051880] silence_start: 81.7335
[silencedetect @ 0x1051880] silence_end: 82.5731 | silence_duration: 0.839592
[silencedetect @ 0x1051880] silence_start: 84.3718
[silencedetect @ 0x1051880] silence_end: 85.6294 | silence_duration: 1.25755
[silencedetect @ 0x1051880] silence_start: 87.2714
[silencedetect @ 0x1051880] silence_end: 87.9282 | silence_duration: 0.656735
[silencedetect @ 0x1051880] silence_start: 89.4396
[silencedetect @ 0x1051880] silence_end: 92.4473 | silence_duration: 3.00776
[silencedetect @ 0x1051880] silence_start: 96.7539
[silencedetect @ 0x1051880] silence_end: 97.698 | silence_duration: 0.944082
[silencedetect @ 0x1051880] silence_start: 98.1384
[silencedetect @ 0x1051880] silence_end: 98.769 | silence_duration: 0.630612
[silencedetect @ 0x1051880] silence_start: 100.15
[silencedetect @ 0x1051880] silence_end: 101.878 | silence_duration: 1.72776
[silencedetect @ 0x1051880] silence_start: 102.945
[silencedetect @ 0x1051880] silence_end: 103.758 | silence_duration: 0.813469
[silencedetect @ 0x1051880] silence_start: 106.289
[silencedetect @ 0x1051880] silence_end: 107.18 | silence_duration: 0.891837
[silencedetect @ 0x1051880] silence_start: 110.181
size=N/A time=00:01:53.37 bitrate=N/A    
video:0kB audio:9765kB subtitle:0kB other streams:0kB global headers:0kB muxing overhead: unknown
